<svg width="21" height="21" viewBox="0 0 21 21" fill="none" xmlns="http://www.w3.org/2000/svg">
<path fill-rule="evenodd" clip-rule="evenodd" d="M10.5768 0.332031C7.81488 0.332031 7.47091 0.343892 6.38477 0.394726C2.69088 0.56417 0.640601 2.61275 0.471156 6.30664C0.422017 7.39278 0.410156 7.73845 0.410156 10.4987C0.410156 13.2606 0.422017 13.6063 0.471156 14.6908C0.640601 18.3829 2.69088 20.4349 6.38477 20.6044C7.47091 20.6535 7.81488 20.6654 10.5768 20.6654C13.3388 20.6654 13.6844 20.6535 14.7706 20.6044C18.4577 20.4349 20.5164 18.3863 20.6825 14.6908C20.7316 13.6063 20.7435 13.2606 20.7435 10.4987C20.7435 7.73845 20.7316 7.39278 20.6825 6.30664C20.5164 2.61784 18.4645 0.562476 14.7706 0.394726C13.6844 0.343892 13.3388 0.332031 10.5768 0.332031ZM10.5693 2.16602C13.2838 2.16602 13.6058 2.17618 14.6784 2.22532C17.4352 2.35071 18.7196 3.65713 18.8467 6.39196C18.8942 7.46454 18.9043 7.78479 18.9043 10.4993C18.9043 13.2138 18.8942 13.5357 18.8467 14.6066C18.7196 17.3398 17.4369 18.6496 14.6784 18.775C13.6058 18.8224 13.2855 18.8343 10.5693 18.8343C7.85485 18.8343 7.5329 18.8241 6.46201 18.775C3.70007 18.6479 2.42076 17.3364 2.29368 14.6066C2.24624 13.5357 2.23438 13.2138 2.23438 10.4993C2.23438 7.78479 2.24624 7.46285 2.29368 6.39196C2.41907 3.65543 3.70346 2.34902 6.46201 2.22363C7.5329 2.17449 7.85485 2.16602 10.5693 2.16602ZM5.35547 10.4979C5.35547 7.61398 7.6938 5.27734 10.5761 5.27734C13.4583 5.27734 15.7966 7.61568 15.7966 10.4979C15.7966 13.3819 13.4583 15.7185 10.5761 15.7185C7.6938 15.7185 5.35547 13.3819 5.35547 10.4979ZM10.5803 13.8891C8.70793 13.8891 7.19141 12.3726 7.19141 10.5002C7.19141 8.62955 8.70793 7.11133 10.5803 7.11133C12.451 7.11133 13.9709 8.62786 13.9709 10.5002C13.9709 12.3726 12.451 13.8891 10.5803 13.8891ZM14.7891 5.07156C14.7891 4.39717 15.3364 3.85156 16.0091 3.85156C16.6851 3.85156 17.2308 4.39717 17.2308 5.07156C17.2308 5.74595 16.6835 6.29156 16.0091 6.29156C15.3347 6.29156 14.7891 5.74426 14.7891 5.07156Z" fill="white"/>
</svg>
