<svg width="320" height="101" viewBox="0 0 320 101" fill="none" xmlns="http://www.w3.org/2000/svg">
<g clip-path="url(#clip0_889_26)">
<path d="M56.682 11.0128L47.2022 4.09655L46.1419 3.32188L44.5631 2.16973L41.5891 0L36.3043 3.85692L35.9794 4.09655L34.3348 5.29465V66.4113L25.0421 46.9462V24.9502L21.8318 22.6098L16.2188 18.5165L13.235 20.6928L10.6057 22.6131L7.10331 25.1734H7.09674L6.6175 25.5279L6.02993 25.9579L0 30.3499V100.021C1.98919 99.2428 4.21143 98.5436 6.6175 97.9363V33.7112L8.93165 32.0207L13.2383 28.8793V96.5774C16.9179 95.98 20.8832 95.5795 25.0421 95.4088V65.7647L34.3348 85.2298V95.4088C35.6084 95.4581 36.8656 95.5336 38.0998 95.6288C40.8965 95.8421 43.5882 96.1638 46.1419 96.5807V11.5117L52.7529 16.3369V97.9363C55.1589 98.5436 57.3779 99.2428 59.3671 100.021V12.9724L56.682 11.0128Z" fill="#F2ECDE"/>
<path d="M92.6562 31.3887H98.7223L124.227 69.0946V31.3887H130.638V79.6413H124.641L99.067 42.0732V79.6413H92.6562V31.3887Z" fill="#F2ECDE"/>
<path d="M142.874 76.7147C140.415 74.3939 139.188 71.3511 139.188 67.5828V58.0701C139.188 54.0261 140.415 50.7863 142.874 48.3507C145.332 45.9151 148.582 44.6973 152.629 44.6973H158.282C162.188 44.6973 165.336 45.8921 167.725 48.2817C170.115 50.6714 171.31 53.8423 171.31 57.7944V64.274H145.598V67.5828C145.598 69.6967 146.242 71.397 147.528 72.6838C148.815 73.9705 150.515 74.6139 152.629 74.6139H157.937C160.005 74.6139 161.682 74.0755 162.969 72.9956C164.256 71.9157 164.899 70.4779 164.899 68.689H171.172C171.172 72.1356 169.954 74.9159 167.519 77.0298C165.083 79.1437 161.866 80.2007 157.868 80.2007H152.629C148.585 80.2007 145.332 79.042 142.874 76.7212V76.7147ZM164.896 59.1698V57.7911C164.896 55.4934 164.285 53.6552 163.071 52.2765C161.853 50.8979 160.255 50.2086 158.282 50.2086H152.629C150.515 50.2086 148.815 50.9307 147.528 52.3783C146.242 53.8259 145.598 55.7461 145.598 58.1358V59.1698H164.899H164.896Z" fill="#F2ECDE"/>
<path d="M186.955 62.1345L174.479 45.2461H181.785L190.678 57.3092L199.57 45.2461H206.877L194.4 62.1345L207.359 79.6433H200.121L190.678 66.8908L181.234 79.6433H173.996L186.955 62.1345Z" fill="#F2ECDE"/>
<path d="M214.12 39.4892C213.293 38.685 212.879 37.6412 212.879 36.3512C212.879 35.0612 213.293 34.0206 214.12 33.2164C214.947 32.4122 216.027 32.0117 217.36 32.0117C218.692 32.0117 219.759 32.4155 220.563 33.2164C221.367 34.0206 221.768 35.0677 221.768 36.3512C221.768 37.6346 221.364 38.685 220.563 39.4892C219.759 40.2934 218.689 40.6939 217.36 40.6939C216.03 40.6939 214.947 40.2934 214.12 39.4892ZM214.12 45.2434H220.53V79.6406H214.12V45.2434Z" fill="#F2ECDE"/>
<path d="M234.074 76.8171C232.029 74.5653 231.008 71.6012 231.008 67.9248V45.2461H237.419V68.0627C237.419 69.9928 237.901 71.5552 238.866 72.7501C239.831 73.9449 241.095 74.5423 242.657 74.5423H246.793C248.723 74.5423 250.493 73.7611 252.101 72.1986C253.71 70.6361 254.766 68.6601 255.272 66.2704V45.2461H261.683V79.6433H255.617V74.6802C254.514 76.2886 253.135 77.6082 251.481 78.6454C249.826 79.6827 248.195 80.1948 246.586 80.1948H242.175C238.82 80.1948 236.119 79.0689 234.077 76.8171H234.074Z" fill="#F2ECDE"/>
<path d="M317.168 47.7619C319.052 49.8069 319.994 52.6003 319.994 56.1355V79.6414H313.584V56.0666C313.584 54.3203 313.17 52.9318 312.343 51.8945C311.516 50.8573 310.436 50.3452 309.103 50.3452H305.519C303.772 50.3452 302.315 50.9557 301.143 52.1702C299.971 53.3881 299.223 55.0556 298.901 57.1662V79.6381H292.421V56.339C292.421 54.4549 292.041 52.9843 291.282 51.9273C290.524 50.8704 289.5 50.3419 288.217 50.3419H284.701C282.955 50.3419 281.438 51.0903 280.151 52.5806C278.865 54.0741 278.061 56.0403 277.739 58.4759V79.6381H271.328V45.2409H277.463V49.8594C278.382 48.251 279.518 46.9872 280.874 46.0681C282.229 45.149 283.618 44.6895 285.046 44.6895H289.044C290.882 44.6895 292.477 45.149 293.833 46.0681C295.189 46.9872 296.255 48.2969 297.037 49.9972C298.048 48.251 299.288 46.9314 300.759 46.0353C302.229 45.1392 303.815 44.6927 305.515 44.6927H309.582C312.753 44.6927 315.281 45.7169 317.165 47.7586L317.168 47.7619Z" fill="#F2ECDE"/>
</g>
<defs>
<clipPath id="clip0_889_26">
<rect width="320" height="100.021" fill="white"/>
</clipPath>
</defs>
</svg>
