<svg width="22" height="18" viewBox="0 0 22 18" fill="none" xmlns="http://www.w3.org/2000/svg">
<path d="M21.1693 2.83208C20.422 3.16419 19.6172 3.38786 18.7733 3.48953C19.6358 2.97272 20.2949 2.156 20.6084 1.18169C19.8019 1.65953 18.9089 2.00689 17.9583 2.19328C17.1992 1.38164 16.113 0.875 14.9151 0.875C12.2209 0.875 10.2418 3.38786 10.8501 5.99731C7.38496 5.82278 4.30955 4.16222 2.25249 1.63919C1.15958 3.51325 1.68655 5.96681 3.54366 7.20883C2.8608 7.18681 2.2186 6.99872 1.65605 6.68694C1.6103 8.61861 2.99635 10.4266 5.00258 10.8299C4.4163 10.9891 3.77241 11.0264 3.11835 10.901C3.64872 12.5582 5.19235 13.7629 7.01558 13.7968C5.25844 15.1727 3.05058 15.7878 0.835938 15.5269C2.68288 16.7113 4.8738 17.4009 7.22908 17.4009C14.9761 17.4009 19.3511 10.8587 19.0868 4.99081C19.9035 4.40453 20.6101 3.66914 21.1693 2.83208Z" fill="white"/>
</svg>
